<svg width="800" height="600" viewBox="0 0 800 600" xmlns="http://www.w3.org/2000/svg">
  <!-- Background - Williamsburg Brooklyn Scene -->
  <rect width="800" height="600" fill="#D3CDBD" />
  
  <!-- Sky -->
  <rect width="800" height="150" fill="#87CEEB" />
  
  <!-- Manhattan skyline in background -->
  <rect x="100" y="100" width="30" height="50" fill="#888888" />
  <rect x="140" y="80" width="20" height="70" fill="#999999" />
  <rect x="170" y="90" width="40" height="60" fill="#888888" />
  <rect x="220" y="70" width="30" height="80" fill="#999999" />
  <rect x="260" y="110" width="20" height="40" fill="#888888" />
  <rect x="290" y="60" width="40" height="90" fill="#999999" />
  <rect x="340" y="80" width="25" height="70" fill="#888888" />
  <rect x="380" y="50" width="15" height="100" fill="#999999" />
  <rect x="410" y="90" width="30" height="60" fill="#888888" />
  <rect x="450" y="70" width="20" height="80" fill="#999999" />
  <rect x="480" y="100" width="35" height="50" fill="#888888" />
  <rect x="530" y="60" width="25" height="90" fill="#999999" />
  <rect x="570" y="80" width="45" height="70" fill="#888888" />
  <rect x="630" y="110" width="20" height="40" fill="#999999" />
  <rect x="660" y="90" width="30" height="60" fill="#888888" />
  <rect x="700" y="70" width="40" height="80" fill="#999999" />
  
  <!-- East River -->
  <rect x="0" y="150" width="800" height="50" fill="#4682B4" />
  
  <!-- Brooklyn industrial buildings and warehouses -->
  <rect x="50" y="200" width="100" height="150" fill="#B25D30" />
  <rect x="60" y="220" width="20" height="30" fill="#A9A9A9" />
  <rect x="90" y="220" width="20" height="30" fill="#A9A9A9" />
  <rect x="120" y="220" width="20" height="30" fill="#A9A9A9" />
  <rect x="60" y="270" width="20" height="30" fill="#A9A9A9" />
  <rect x="90" y="270" width="20" height="30" fill="#A9A9A9" />
  <rect x="120" y="270" width="20" height="30" fill="#A9A9A9" />
  
  <rect x="170" y="200" width="200" height="120" fill="#8B7355" />
  <rect x="180" y="220" width="30" height="40" fill="#A9A9A9" />
  <rect x="230" y="220" width="30" height="40" fill="#A9A9A9" />
  <rect x="280" y="220" width="30" height="40" fill="#A9A9A9" />
  <rect x="330" y="220" width="30" height="40" fill="#A9A9A9" />
  
  <rect x="400" y="200" width="150" height="170" fill="#B25D30" />
  <rect x="410" y="220" width="25" height="25" fill="#A9A9A9" />
  <rect x="450" y="220" width="25" height="25" fill="#A9A9A9" />
  <rect x="490" y="220" width="25" height="25" fill="#A9A9A9" />
  <rect x="410" y="260" width="25" height="25" fill="#A9A9A9" />
  <rect x="450" y="260" width="25" height="25" fill="#A9A9A9" />
  <rect x="490" y="260" width="25" height="25" fill="#A9A9A9" />
  <rect x="410" y="300" width="25" height="25" fill="#A9A9A9" />
  <rect x="450" y="300" width="25" height="25" fill="#A9A9A9" />
  <rect x="490" y="300" width="25" height="25" fill="#A9A9A9" />
  
  <rect x="570" y="200" width="180" height="140" fill="#8B7355" />
  <rect x="580" y="220" width="40" height="50" fill="#A9A9A9" />
  <rect x="640" y="220" width="40" height="50" fill="#A9A9A9" />
  <rect x="700" y="220" width="40" height="50" fill="#A9A9A9" />
  
  <!-- Street scene -->
  <rect x="0" y="370" width="800" height="230" fill="#777777" />
  <rect x="100" y="450" width="600" height="10" fill="#FFFFFF" dash-array="10,10" />
  
  <!-- Hip neighborhood elements -->
  <!-- Street art / mural -->
  <rect x="50" y="200" width="100" height="80" fill="#D35400" />
  <circle cx="75" cy="220" r="15" fill="#F1C40F" />
  <rect x="100" y="210" width="40" height="30" fill="#3498DB" />
  <polygon points="50,280 100,240 150,280" fill="#2ECC71" />
  
  <!-- Outdoor seating area with string lights -->
  <rect x="600" y="350" width="150" height="80" fill="#8B7355" />
  <line x1="600" y1="350" x2="750" y2="350" stroke="#FFFF00" stroke-width="2" dash-array="5,5" />
  <circle cx="610" cy="350" r="3" fill="#FFFF00" />
  <circle cx="625" cy="350" r="3" fill="#FFFF00" />
  <circle cx="640" cy="350" r="3" fill="#FFFF00" />
  <circle cx="655" cy="350" r="3" fill="#FFFF00" />
  <circle cx="670" cy="350" r="3" fill="#FFFF00" />
  <circle cx="685" cy="350" r="3" fill="#FFFF00" />
  <circle cx="700" cy="350" r="3" fill="#FFFF00" />
  <circle cx="715" cy="350" r="3" fill="#FFFF00" />
  <circle cx="730" cy="350" r="3" fill="#FFFF00" />
  <circle cx="745" cy="350" r="3" fill="#FFFF00" />
  
  <!-- Parking space -->
  <rect x="250" y="370" width="300" height="230" fill="#5D5D5D" />
  <rect x="270" y="390" width="260" height="190" fill="#696969" stroke="#FFFFFF" stroke-width="2" />
  
  <!-- Subway entrance nearby -->
  <rect x="170" y="400" width="50" height="80" fill="#2C3E50" />
  <rect x="180" y="400" width="30" height="20" fill="#2980B9" />
  <text x="185" y="415" font-family="Arial" font-size="12" fill="white">L</text>
  <rect x="180" y="430" width="30" height="50" fill="#2C3E50" />
  
  <!-- Parked bicycle -->
  <line x1="570" y1="450" x2="600" y2="450" stroke="#2C3E50" stroke-width="3" />
  <circle cx="570" cy="450" r="10" fill="#2C3E50" stroke="#95A5A6" stroke-width="2" />
  <circle cx="600" cy="450" r="10" fill="#2C3E50" stroke="#95A5A6" stroke-width="2" />
  <line x1="600" y1="440" x2="580" y2="430" stroke="#2C3E50" stroke-width="2" />
  <line x1="580" y1="430" x2="585" y2="425" stroke="#2C3E50" stroke-width="2" />
  
  <!-- Williamsburg Label -->
  <rect x="50" y="50" width="320" height="60" rx="10" fill="rgba(0,0,0,0.7)" />
  <text x="70" y="90" font-family="Arial" font-size="24" fill="white">Williamsburg Brooklyn Space</text>
</svg>