<svg width="800" height="600" viewBox="0 0 800 600" xmlns="http://www.w3.org/2000/svg">
  <!-- Background - Upper East Side Scene -->
  <rect width="800" height="600" fill="#E8E8E8" />
  
  <!-- Sky and Central Park suggestion -->
  <rect width="800" height="150" fill="#87CEEB" />
  <rect x="0" y="150" width="800" height="100" fill="#228B22" />
  <ellipse cx="100" y="150" rx="30" ry="20" fill="#006400" />
  <ellipse cx="200" y="150" rx="40" ry="25" fill="#006400" />
  <ellipse cx="300" y="150" rx="30" ry="20" fill="#006400" />
  <ellipse cx="400" y="150" rx="50" ry="30" fill="#006400" />
  <ellipse cx="500" y="150" rx="30" ry="20" fill="#006400" />
  <ellipse cx="600" y="150" rx="40" ry="25" fill="#006400" />
  <ellipse cx="700" y="150" rx="30" ry="20" fill="#006400" />
  
  <!-- Upper East Side luxury buildings -->
  <rect x="0" y="250" width="800" height="200" fill="#D6C6AF" />
  
  <!-- Ornate building facades -->
  <rect x="50" y="250" width="150" height="200" fill="#E8D8BF" />
  <rect x="60" y="260" width="30" height="50" fill="#A9A9A9" />
  <rect x="100" y="260" width="30" height="50" fill="#A9A9A9" />
  <rect x="140" y="260" width="30" height="50" fill="#A9A9A9" />
  <rect x="60" y="320" width="30" height="50" fill="#A9A9A9" />
  <rect x="100" y="320" width="30" height="50" fill="#A9A9A9" />
  <rect x="140" y="320" width="30" height="50" fill="#A9A9A9" />
  <rect x="60" y="380" width="130" height="20" fill="#A9A9A9" />
  <rect x="70" y="240" width="110" height="10" fill="#8B7D6B" />
  
  <rect x="250" y="250" width="150" height="200" fill="#E8D8BF" />
  <rect x="260" y="260" width="30" height="50" fill="#A9A9A9" />
  <rect x="300" y="260" width="30" height="50" fill="#A9A9A9" />
  <rect x="340" y="260" width="30" height="50" fill="#A9A9A9" />
  <rect x="260" y="320" width="30" height="50" fill="#A9A9A9" />
  <rect x="300" y="320" width="30" height="50" fill="#A9A9A9" />
  <rect x="340" y="320" width="30" height="50" fill="#A9A9A9" />
  <rect x="260" y="380" width="130" height="20" fill="#A9A9A9" />
  <rect x="270" y="240" width="110" height="10" fill="#8B7D6B" />
  
  <rect x="450" y="250" width="150" height="200" fill="#E8D8BF" />
  <rect x="460" y="260" width="30" height="50" fill="#A9A9A9" />
  <rect x="500" y="260" width="30" height="50" fill="#A9A9A9" />
  <rect x="540" y="260" width="30" height="50" fill="#A9A9A9" />
  <rect x="460" y="320" width="30" height="50" fill="#A9A9A9" />
  <rect x="500" y="320" width="30" height="50" fill="#A9A9A9" />
  <rect x="540" y="320" width="30" height="50" fill="#A9A9A9" />
  <rect x="460" y="380" width="130" height="20" fill="#A9A9A9" />
  <rect x="470" y="240" width="110" height="10" fill="#8B7D6B" />
  
  <rect x="650" y="250" width="150" height="200" fill="#E8D8BF" />
  <rect x="660" y="260" width="30" height="50" fill="#A9A9A9" />
  <rect x="700" y="260" width="30" height="50" fill="#A9A9A9" />
  <rect x="740" y="260" width="30" height="50" fill="#A9A9A9" />
  <rect x="660" y="320" width="30" height="50" fill="#A9A9A9" />
  <rect x="700" y="320" width="30" height="50" fill="#A9A9A9" />
  <rect x="740" y="320" width="30" height="50" fill="#A9A9A9" />
  <rect x="660" y="380" width="130" height="20" fill="#A9A9A9" />
  <rect x="670" y="240" width="110" height="10" fill="#8B7D6B" />
  
  <!-- Street -->
  <rect x="0" y="450" width="800" height="150" fill="#A9A9A9" />
  <rect x="100" y="520" width="600" height="10" fill="#FFFFFF" />
  
  <!-- Secure gated driveway entrance -->
  <rect x="300" y="450" width="200" height="150" fill="#4A4A4A" />
  <rect x="320" y="470" width="160" height="130" fill="#5A5A5A" />
  
  <!-- Iron gate -->
  <rect x="300" y="450" width="200" height="20" fill="#292929" />
  <line x1="310" y1="450" x2="310" y2="520" stroke="#292929" stroke-width="4" />
  <line x1="330" y1="450" x2="330" y2="520" stroke="#292929" stroke-width="4" />
  <line x1="350" y1="450" x2="350" y2="520" stroke="#292929" stroke-width="4" />
  <line x1="370" y1="450" x2="370" y2="520" stroke="#292929" stroke-width="4" />
  <line x1="390" y1="450" x2="390" y2="520" stroke="#292929" stroke-width="4" />
  <line x1="410" y1="450" x2="410" y2="520" stroke="#292929" stroke-width="4" />
  <line x1="430" y1="450" x2="430" y2="520" stroke="#292929" stroke-width="4" />
  <line x1="450" y1="450" x2="450" y2="520" stroke="#292929" stroke-width="4" />
  <line x1="470" y1="450" x2="470" y2="520" stroke="#292929" stroke-width="4" />
  <line x1="490" y1="450" x2="490" y2="520" stroke="#292929" stroke-width="4" />
  
  <!-- Security camera -->
  <rect x="270" y="460" width="20" height="15" fill="#333" />
  <circle cx="280" cy="475" r="5" fill="#444" />
  <rect x="510" y="460" width="20" height="15" fill="#333" />
  <circle cx="520" cy="475" r="5" fill="#444" />
  
  <!-- Luxury car in driveway -->
  <rect x="350" y="500" width="100" height="30" rx="8" fill="#1A1A1A" />
  <rect x="360" y="490" width="80" height="20" rx="5" fill="#1A1A1A" />
  <circle cx="370" cy="530" r="10" fill="#333" />
  <circle cx="370" cy="530" r="5" fill="#555" />
  <circle cx="430" cy="530" r="10" fill="#333" />
  <circle cx="430" cy="530" r="5" fill="#555" />
  
  <!-- Upper East Side Label -->
  <rect x="50" y="50" width="360" height="60" rx="10" fill="rgba(0,0,0,0.7)" />
  <text x="70" y="90" font-family="Arial" font-size="24" fill="white">Upper East Side Private Driveway</text>
</svg>